<?xml version="1.0" encoding="UTF-8" standalone="no"?>
<!DOCTYPE svg PUBLIC "-//W3C//DTD SVG 1.1//EN" "http://www.w3.org/Graphics/SVG/1.1/DTD/svg11.dtd">
<svg width="100%" height="100%" viewBox="0 0 834 834" version="1.1" xmlns="http://www.w3.org/2000/svg" xmlns:xlink="http://www.w3.org/1999/xlink" xml:space="preserve" xmlns:serif="http://www.serif.com/" style="fill-rule:evenodd;clip-rule:evenodd;stroke-linecap:round;stroke-linejoin:round;stroke-miterlimit:1.5;">
    <g id="Layer1">
        <g transform="matrix(1,0,0,1,606.932,186.483)">
            <path d="M139.446,30.885C139.446,30.885 124.092,44.468 122.265,47.921C120.481,51.294 115.164,67.537 119.217,84.145C123.27,100.753 137.388,108.398 141.692,111.797C145.995,115.196 168.386,121.107 170.715,121.626" style="fill:none;stroke:black;stroke-width:0.75px;"/>
        </g>
        <g transform="matrix(1,0,0,1,655.49,83.6029)">
            <path d="M139.446,30.885C139.446,30.885 124.092,44.468 122.265,47.921C120.481,51.294 115.164,67.537 119.217,84.145C123.27,100.753 137.388,108.398 141.692,111.797C145.995,115.196 168.386,121.107 170.715,121.626" style="fill:none;stroke:black;stroke-width:0.75px;"/>
        </g>
        <g transform="matrix(1,0,0,1,-133.278,17.94)">
            <path d="M139.446,30.885C139.446,30.885 124.092,44.468 122.265,47.921C120.481,51.294 115.164,67.537 119.217,84.145C123.27,100.753 137.388,108.398 141.692,111.797C145.995,115.196 168.386,121.107 170.715,121.626" style="fill:none;stroke:black;stroke-width:0.75px;"/>
        </g>
        <g transform="matrix(1,0,0,1,33.9583,262.346)">
            <path d="M139.446,30.885C139.446,30.885 124.092,44.468 122.265,47.921C120.481,51.294 115.164,67.537 119.217,84.145C123.27,100.753 137.388,108.398 141.692,111.797C145.995,115.196 168.386,121.107 170.715,121.626" style="fill:none;stroke:black;stroke-width:0.75px;"/>
        </g>
        <g transform="matrix(1,0,0,1,226.237,72.0128)">
            <path d="M139.446,30.885C139.446,30.885 124.092,44.468 122.265,47.921C120.481,51.294 115.164,67.537 119.217,84.145C123.27,100.753 137.388,108.398 141.692,111.797C145.995,115.196 168.386,121.107 170.715,121.626" style="fill:none;stroke:black;stroke-width:0.75px;"/>
        </g>
        <g transform="matrix(1,0,0,1,227.97,280.641)">
            <path d="M139.446,30.885C139.446,30.885 124.092,44.468 122.265,47.921C120.481,51.294 115.164,67.537 119.217,84.145C123.27,100.753 137.388,108.398 141.692,111.797C145.995,115.196 168.386,121.107 170.715,121.626" style="fill:none;stroke:black;stroke-width:0.75px;"/>
        </g>
        <g transform="matrix(1,0,0,1,418.85,106.753)">
            <path d="M139.446,30.885C139.446,30.885 124.092,44.468 122.265,47.921C120.481,51.294 115.164,67.537 119.217,84.145C123.27,100.753 137.388,108.398 141.692,111.797C145.995,115.196 168.386,121.107 170.715,121.626" style="fill:none;stroke:black;stroke-width:0.75px;"/>
        </g>
        <g transform="matrix(1,0,0,1,420.582,315.381)">
            <path d="M139.446,30.885C139.446,30.885 124.092,44.468 122.265,47.921C120.481,51.294 115.164,67.537 119.217,84.145C123.27,100.753 137.388,108.398 141.692,111.797C145.995,115.196 168.386,121.107 170.715,121.626" style="fill:none;stroke:black;stroke-width:0.75px;"/>
        </g>
        <g transform="matrix(1,0,0,1,373.246,558.277)">
            <path d="M139.446,30.885C139.446,30.885 124.092,44.468 122.265,47.921C120.481,51.294 115.164,67.537 119.217,84.145C123.27,100.753 137.388,108.398 141.692,111.797C145.995,115.196 168.386,121.107 170.715,121.626" style="fill:none;stroke:black;stroke-width:0.75px;"/>
        </g>
        <g transform="matrix(1,0,0,1,565.524,367.944)">
            <path d="M139.446,30.885C139.446,30.885 124.092,44.468 122.265,47.921C120.481,51.294 115.164,67.537 119.217,84.145C123.27,100.753 137.388,108.398 141.692,111.797C145.995,115.196 168.386,121.107 170.715,121.626" style="fill:none;stroke:black;stroke-width:0.75px;"/>
        </g>
        <g transform="matrix(1,0,0,1,191.41,679.098)">
            <path d="M139.446,30.885C139.446,30.885 124.092,44.468 122.265,47.921C120.481,51.294 115.164,67.537 119.217,84.145C123.27,100.753 137.388,108.398 141.692,111.797C145.995,115.196 168.386,121.107 170.715,121.626" style="fill:none;stroke:black;stroke-width:0.75px;"/>
        </g>
        <g transform="matrix(1,0,0,1,-82.535,43.6634)">
            <path d="M139.446,30.885C139.446,30.885 124.092,44.468 122.265,47.921C120.481,51.294 115.164,67.537 119.217,84.145C123.27,100.753 137.388,108.398 141.692,111.797C145.995,115.196 168.386,121.107 170.715,121.626" style="fill:none;stroke:black;stroke-width:0.75px;"/>
        </g>
        <g transform="matrix(1,0,0,1,84.7014,288.07)">
            <path d="M139.446,30.885C139.446,30.885 124.092,44.468 122.265,47.921C120.481,51.294 115.164,67.537 119.217,84.145C123.27,100.753 137.388,108.398 141.692,111.797C145.995,115.196 168.386,121.107 170.715,121.626" style="fill:none;stroke:black;stroke-width:0.75px;"/>
        </g>
        <g transform="matrix(1,0,0,1,276.98,97.7362)">
            <path d="M139.446,30.885C139.446,30.885 124.092,44.468 122.265,47.921C120.481,51.294 115.164,67.537 119.217,84.145C123.27,100.753 137.388,108.398 141.692,111.797C145.995,115.196 168.386,121.107 170.715,121.626" style="fill:none;stroke:black;stroke-width:0.75px;"/>
        </g>
        <g transform="matrix(1,0,0,1,278.713,306.364)">
            <path d="M139.446,30.885C139.446,30.885 124.092,44.468 122.265,47.921C120.481,51.294 115.164,67.537 119.217,84.145C123.27,100.753 137.388,108.398 141.692,111.797C145.995,115.196 168.386,121.107 170.715,121.626" style="fill:none;stroke:black;stroke-width:0.75px;"/>
        </g>
        <g transform="matrix(1,0,0,1,469.593,132.476)">
            <path d="M139.446,30.885C139.446,30.885 124.092,44.468 122.265,47.921C120.481,51.294 115.164,67.537 119.217,84.145C123.27,100.753 137.388,108.398 141.692,111.797C145.995,115.196 168.386,121.107 170.715,121.626" style="fill:none;stroke:black;stroke-width:0.75px;"/>
        </g>
        <g transform="matrix(1,0,0,1,471.325,341.104)">
            <path d="M139.446,30.885C139.446,30.885 124.092,44.468 122.265,47.921C120.481,51.294 115.164,67.537 119.217,84.145C123.27,100.753 137.388,108.398 141.692,111.797C145.995,115.196 168.386,121.107 170.715,121.626" style="fill:none;stroke:black;stroke-width:0.75px;"/>
        </g>
        <g transform="matrix(1,0,0,1,423.989,584.001)">
            <path d="M139.446,30.885C139.446,30.885 124.092,44.468 122.265,47.921C120.481,51.294 115.164,67.537 119.217,84.145C123.27,100.753 137.388,108.398 141.692,111.797C145.995,115.196 168.386,121.107 170.715,121.626" style="fill:none;stroke:black;stroke-width:0.75px;"/>
        </g>
        <g transform="matrix(1,0,0,1,242.153,704.821)">
            <path d="M139.446,30.885C139.446,30.885 124.092,44.468 122.265,47.921C120.481,51.294 115.164,67.537 119.217,84.145C123.27,100.753 137.388,108.398 141.692,111.797C145.995,115.196 168.386,121.107 170.715,121.626" style="fill:none;stroke:black;stroke-width:0.75px;"/>
        </g>
        <g transform="matrix(1,0,0,1,98.6595,139.659)">
            <path d="M139.446,30.885C139.446,30.885 124.092,44.468 122.265,47.921C120.481,51.294 115.164,67.537 119.217,84.145C123.27,100.753 137.388,108.398 141.692,111.797C145.995,115.196 168.386,121.107 170.715,121.626" style="fill:none;stroke:black;stroke-width:0.75px;"/>
        </g>
        <g transform="matrix(1,0,0,1,290.938,-50.6742)">
            <path d="M139.446,30.885C139.446,30.885 124.092,44.468 122.265,47.921C120.481,51.294 115.164,67.537 119.217,84.145C123.27,100.753 137.388,108.398 141.692,111.797C145.995,115.196 168.386,121.107 170.715,121.626" style="fill:none;stroke:black;stroke-width:0.75px;"/>
        </g>
        <g transform="matrix(1,0,0,1,483.551,-15.9343)">
            <path d="M139.446,30.885C139.446,30.885 124.092,44.468 122.265,47.921C120.481,51.294 115.164,67.537 119.217,84.145C123.27,100.753 137.388,108.398 141.692,111.797C145.995,115.196 168.386,121.107 170.715,121.626" style="fill:none;stroke:black;stroke-width:0.75px;"/>
        </g>
        <g transform="matrix(1,0,0,1,304.669,453.53)">
            <path d="M139.446,30.885C139.446,30.885 124.092,44.468 122.265,47.921C120.481,51.294 115.164,67.537 119.217,84.145C123.27,100.753 137.388,108.398 141.692,111.797C145.995,115.196 168.386,121.107 170.715,121.626" style="fill:none;stroke:black;stroke-width:0.75px;"/>
        </g>
        <g transform="matrix(1,0,0,1,482.625,438.486)">
            <path d="M139.446,30.885C139.446,30.885 124.092,44.468 122.265,47.921C120.481,51.294 115.164,67.537 119.217,84.145C123.27,100.753 137.388,108.398 141.692,111.797C145.995,115.196 168.386,121.107 170.715,121.626" style="fill:none;stroke:black;stroke-width:0.75px;"/>
        </g>
        <g transform="matrix(1,0,0,1,256.111,556.411)">
            <path d="M139.446,30.885C139.446,30.885 124.092,44.468 122.265,47.921C120.481,51.294 115.164,67.537 119.217,84.145C123.27,100.753 137.388,108.398 141.692,111.797C145.995,115.196 168.386,121.107 170.715,121.626" style="fill:none;stroke:black;stroke-width:0.75px;"/>
        </g>
        <g transform="matrix(1,0,0,1,626.346,351.032)">
            <path d="M139.446,30.885C139.446,30.885 124.092,44.468 122.265,47.921C120.481,51.294 115.164,67.537 119.217,84.145C123.27,100.753 137.388,108.398 141.692,111.797C145.995,115.196 168.386,121.107 170.715,121.626" style="fill:none;stroke:black;stroke-width:0.75px;"/>
        </g>
        <g transform="matrix(1,0,0,1,194.862,55.3278)">
            <path d="M139.446,30.885C139.446,30.885 124.092,44.468 122.265,47.921C120.481,51.294 115.164,67.537 119.217,84.145C123.27,100.753 137.388,108.398 141.692,111.797C145.995,115.196 168.386,121.107 170.715,121.626" style="fill:none;stroke:black;stroke-width:0.75px;"/>
        </g>
        <g transform="matrix(1,0,0,1,196.595,263.956)">
            <path d="M139.446,30.885C139.446,30.885 124.092,44.468 122.265,47.921C120.481,51.294 115.164,67.537 119.217,84.145C123.27,100.753 137.388,108.398 141.692,111.797C145.995,115.196 168.386,121.107 170.715,121.626" style="fill:none;stroke:black;stroke-width:0.75px;"/>
        </g>
        <g transform="matrix(1,0,0,1,-101.604,108.852)">
            <path d="M139.446,30.885C139.446,30.885 124.092,44.468 122.265,47.921C120.481,51.294 115.164,67.537 119.217,84.145C123.27,100.753 137.388,108.398 141.692,111.797C145.995,115.196 168.386,121.107 170.715,121.626" style="fill:none;stroke:black;stroke-width:0.75px;"/>
        </g>
        <g transform="matrix(1,0,0,1,65.6326,353.258)">
            <path d="M139.446,30.885C139.446,30.885 124.092,44.468 122.265,47.921C120.481,51.294 115.164,67.537 119.217,84.145C123.27,100.753 137.388,108.398 141.692,111.797C145.995,115.196 168.386,121.107 170.715,121.626" style="fill:none;stroke:black;stroke-width:0.75px;"/>
        </g>
        <g transform="matrix(1,0,0,1,79.5908,204.848)">
            <path d="M139.446,30.885C139.446,30.885 124.092,44.468 122.265,47.921C120.481,51.294 115.164,67.537 119.217,84.145C123.27,100.753 137.388,108.398 141.692,111.797C145.995,115.196 168.386,121.107 170.715,121.626" style="fill:none;stroke:black;stroke-width:0.75px;"/>
        </g>
        <g transform="matrix(1,0,0,1,271.869,14.5145)">
            <path d="M139.446,30.885C139.446,30.885 124.092,44.468 122.265,47.921C120.481,51.294 115.164,67.537 119.217,84.145C123.27,100.753 137.388,108.398 141.692,111.797C145.995,115.196 168.386,121.107 170.715,121.626" style="fill:none;stroke:black;stroke-width:0.75px;"/>
        </g>
        <g transform="matrix(1,0,0,1,273.602,223.143)">
            <path d="M139.446,30.885C139.446,30.885 124.092,44.468 122.265,47.921C120.481,51.294 115.164,67.537 119.217,84.145C123.27,100.753 137.388,108.398 141.692,111.797C145.995,115.196 168.386,121.107 170.715,121.626" style="fill:none;stroke:black;stroke-width:0.75px;"/>
        </g>
        <g transform="matrix(1,0,0,1,464.482,49.2544)">
            <path d="M139.446,30.885C139.446,30.885 124.092,44.468 122.265,47.921C120.481,51.294 115.164,67.537 119.217,84.145C123.27,100.753 137.388,108.398 141.692,111.797C145.995,115.196 168.386,121.107 170.715,121.626" style="fill:none;stroke:black;stroke-width:0.75px;"/>
        </g>
        <g transform="matrix(1,0,0,1,466.215,257.882)">
            <path d="M139.446,30.885C139.446,30.885 124.092,44.468 122.265,47.921C120.481,51.294 115.164,67.537 119.217,84.145C123.27,100.753 137.388,108.398 141.692,111.797C145.995,115.196 168.386,121.107 170.715,121.626" style="fill:none;stroke:black;stroke-width:0.75px;"/>
        </g>
        <g transform="matrix(1,0,0,1,418.878,500.779)">
            <path d="M139.446,30.885C139.446,30.885 124.092,44.468 122.265,47.921C120.481,51.294 115.164,67.537 119.217,84.145C123.27,100.753 137.388,108.398 141.692,111.797C145.995,115.196 168.386,121.107 170.715,121.626" style="fill:none;stroke:black;stroke-width:0.75px;"/>
        </g>
        <g transform="matrix(1,0,0,1,596.834,485.734)">
            <path d="M139.446,30.885C139.446,30.885 124.092,44.468 122.265,47.921C120.481,51.294 115.164,67.537 119.217,84.145C123.27,100.753 137.388,108.398 141.692,111.797C145.995,115.196 168.386,121.107 170.715,121.626" style="fill:none;stroke:black;stroke-width:0.75px;"/>
        </g>
        <g transform="matrix(1,0,0,1,237.042,621.6)">
            <path d="M139.446,30.885C139.446,30.885 124.092,44.468 122.265,47.921C120.481,51.294 115.164,67.537 119.217,84.145C123.27,100.753 137.388,108.398 141.692,111.797C145.995,115.196 168.386,121.107 170.715,121.626" style="fill:none;stroke:black;stroke-width:0.75px;"/>
        </g>
        <g transform="matrix(1,0,0,1,126.105,201.978)">
            <path d="M139.446,30.885C139.446,30.885 124.092,44.468 122.265,47.921C120.481,51.294 115.164,67.537 119.217,84.145C123.27,100.753 137.388,108.398 141.692,111.797C145.995,115.196 168.386,121.107 170.715,121.626" style="fill:none;stroke:black;stroke-width:0.75px;"/>
        </g>
        <g transform="matrix(1,0,0,1,368.072,-69.8169)">
            <path d="M139.446,30.885C139.446,30.885 124.092,44.468 122.265,47.921C120.481,51.294 115.164,67.537 119.217,84.145C123.27,100.753 137.388,108.398 141.692,111.797C145.995,115.196 168.386,121.107 170.715,121.626" style="fill:none;stroke:black;stroke-width:0.75px;"/>
        </g>
        <g transform="matrix(1,0,0,1,501.684,137.316)">
            <path d="M139.446,30.885C139.446,30.885 124.092,44.468 122.265,47.921C120.481,51.294 115.164,67.537 119.217,84.145C123.27,100.753 137.388,108.398 141.692,111.797C145.995,115.196 168.386,121.107 170.715,121.626" style="fill:none;stroke:black;stroke-width:0.75px;"/>
        </g>
        <g transform="matrix(1,0,0,1,515.081,416.448)">
            <path d="M139.446,30.885C139.446,30.885 124.092,44.468 122.265,47.921C120.481,51.294 115.164,67.537 119.217,84.145C123.27,100.753 137.388,108.398 141.692,111.797C145.995,115.196 168.386,121.107 170.715,121.626" style="fill:none;stroke:black;stroke-width:0.75px;"/>
        </g>
        <g transform="matrix(1,0,0,1,333.245,537.268)">
            <path d="M139.446,30.885C139.446,30.885 124.092,44.468 122.265,47.921C120.481,51.294 115.164,67.537 119.217,84.145C123.27,100.753 137.388,108.398 141.692,111.797C145.995,115.196 168.386,121.107 170.715,121.626" style="fill:none;stroke:black;stroke-width:0.75px;"/>
        </g>
        <g transform="matrix(1,0,0,1,525.524,346.935)">
            <path d="M139.446,30.885C139.446,30.885 124.092,44.468 122.265,47.921C120.481,51.294 115.164,67.537 119.217,84.145C123.27,100.753 137.388,108.398 141.692,111.797C145.995,115.196 168.386,121.107 170.715,121.626" style="fill:none;stroke:black;stroke-width:0.75px;"/>
        </g>
        <g transform="matrix(1,0,0,1,-157.829,73.1865)">
            <path d="M139.446,30.885C139.446,30.885 124.092,44.468 122.265,47.921C120.481,51.294 115.164,67.537 119.217,84.145C123.27,100.753 137.388,108.398 141.692,111.797C145.995,115.196 168.386,121.107 170.715,121.626" style="fill:none;stroke:black;stroke-width:0.75px;"/>
        </g>
        <g transform="matrix(1,0,0,1,9.40726,317.593)">
            <path d="M139.446,30.885C139.446,30.885 124.092,44.468 122.265,47.921C120.481,51.294 115.164,67.537 119.217,84.145C123.27,100.753 137.388,108.398 141.692,111.797C145.995,115.196 168.386,121.107 170.715,121.626" style="fill:none;stroke:black;stroke-width:0.75px;"/>
        </g>
        <g transform="matrix(1,0,0,1,23.3654,169.182)">
            <path d="M139.446,30.885C139.446,30.885 124.092,44.468 122.265,47.921C120.481,51.294 115.164,67.537 119.217,84.145C123.27,100.753 137.388,108.398 141.692,111.797C145.995,115.196 168.386,121.107 170.715,121.626" style="fill:none;stroke:black;stroke-width:0.75px;"/>
        </g>
        <g transform="matrix(1,0,0,1,215.644,-21.1511)">
            <path d="M139.446,30.885C139.446,30.885 124.092,44.468 122.265,47.921C120.481,51.294 115.164,67.537 119.217,84.145C123.27,100.753 137.388,108.398 141.692,111.797C145.995,115.196 168.386,121.107 170.715,121.626" style="fill:none;stroke:black;stroke-width:0.75px;"/>
        </g>
        <g transform="matrix(1,0,0,1,408.257,13.5888)">
            <path d="M139.446,30.885C139.446,30.885 124.092,44.468 122.265,47.921C120.481,51.294 115.164,67.537 119.217,84.145C123.27,100.753 137.388,108.398 141.692,111.797C145.995,115.196 168.386,121.107 170.715,121.626" style="fill:none;stroke:black;stroke-width:0.75px;"/>
        </g>
        <g transform="matrix(1,0,0,1,409.989,222.217)">
            <path d="M139.446,30.885C139.446,30.885 124.092,44.468 122.265,47.921C120.481,51.294 115.164,67.537 119.217,84.145C123.27,100.753 137.388,108.398 141.692,111.797C145.995,115.196 168.386,121.107 170.715,121.626" style="fill:none;stroke:black;stroke-width:0.75px;"/>
        </g>
        <g transform="matrix(1,0,0,1,229.375,483.054)">
            <path d="M139.446,30.885C139.446,30.885 124.092,44.468 122.265,47.921C120.481,51.294 115.164,67.537 119.217,84.145C123.27,100.753 137.388,108.398 141.692,111.797C145.995,115.196 168.386,121.107 170.715,121.626" style="fill:none;stroke:black;stroke-width:0.75px;"/>
        </g>
        <g transform="matrix(1,0,0,1,407.331,468.009)">
            <path d="M139.446,30.885C139.446,30.885 124.092,44.468 122.265,47.921C120.481,51.294 115.164,67.537 119.217,84.145C123.27,100.753 137.388,108.398 141.692,111.797C145.995,115.196 168.386,121.107 170.715,121.626" style="fill:none;stroke:black;stroke-width:0.75px;"/>
        </g>
        <g transform="matrix(1,0,0,1,599.61,277.675)">
            <path d="M139.446,30.885C139.446,30.885 124.092,44.468 122.265,47.921C120.481,51.294 115.164,67.537 119.217,84.145C123.27,100.753 137.388,108.398 141.692,111.797C145.995,115.196 168.386,121.107 170.715,121.626" style="fill:none;stroke:black;stroke-width:0.75px;"/>
        </g>
        <g transform="matrix(1,0,0,1,180.817,585.934)">
            <path d="M139.446,30.885C139.446,30.885 124.092,44.468 122.265,47.921C120.481,51.294 115.164,67.537 119.217,84.145C123.27,100.753 137.388,108.398 141.692,111.797C145.995,115.196 168.386,121.107 170.715,121.626" style="fill:none;stroke:black;stroke-width:0.75px;"/>
        </g>
        <g transform="matrix(1,0,0,1,551.052,380.556)">
            <path d="M139.446,30.885C139.446,30.885 124.092,44.468 122.265,47.921C120.481,51.294 115.164,67.537 119.217,84.145C123.27,100.753 137.388,108.398 141.692,111.797C145.995,115.196 168.386,121.107 170.715,121.626" style="fill:none;stroke:black;stroke-width:0.75px;"/>
        </g>
        <g transform="matrix(1,0,0,1,119.568,84.8509)">
            <path d="M139.446,30.885C139.446,30.885 124.092,44.468 122.265,47.921C120.481,51.294 115.164,67.537 119.217,84.145C123.27,100.753 137.388,108.398 141.692,111.797C145.995,115.196 168.386,121.107 170.715,121.626" style="fill:none;stroke:black;stroke-width:0.75px;"/>
        </g>
        <g transform="matrix(1,0,0,1,311.847,-105.483)">
            <path d="M139.446,30.885C139.446,30.885 124.092,44.468 122.265,47.921C120.481,51.294 115.164,67.537 119.217,84.145C123.27,100.753 137.388,108.398 141.692,111.797C145.995,115.196 168.386,121.107 170.715,121.626" style="fill:none;stroke:black;stroke-width:0.75px;"/>
        </g>
        <g transform="matrix(1,0,0,1,312.181,119.591)">
            <path d="M139.446,30.885C139.446,30.885 124.092,44.468 122.265,47.921C120.481,51.294 115.164,67.537 119.217,84.145C123.27,100.753 137.388,108.398 141.692,111.797C145.995,115.196 168.386,121.107 170.715,121.626" style="fill:none;stroke:black;stroke-width:0.75px;"/>
        </g>
        <g transform="matrix(1,0,0,1,313.914,328.219)">
            <path d="M139.446,30.885C139.446,30.885 124.092,44.468 122.265,47.921C120.481,51.294 115.164,67.537 119.217,84.145C123.27,100.753 137.388,108.398 141.692,111.797C145.995,115.196 168.386,121.107 170.715,121.626" style="fill:none;stroke:black;stroke-width:0.75px;"/>
        </g>
        <g transform="matrix(1,0,0,1,504.46,-70.7426)">
            <path d="M139.446,30.885C139.446,30.885 124.092,44.468 122.265,47.921C120.481,51.294 115.164,67.537 119.217,84.145C123.27,100.753 137.388,108.398 141.692,111.797C145.995,115.196 168.386,121.107 170.715,121.626" style="fill:none;stroke:black;stroke-width:0.75px;"/>
        </g>
        <g transform="matrix(1,0,0,1,517.856,208.389)">
            <path d="M139.446,30.885C139.446,30.885 124.092,44.468 122.265,47.921C120.481,51.294 115.164,67.537 119.217,84.145C123.27,100.753 137.388,108.398 141.692,111.797C145.995,115.196 168.386,121.107 170.715,121.626" style="fill:none;stroke:black;stroke-width:0.75px;"/>
        </g>
        <g transform="matrix(1,0,0,1,277.02,501.602)">
            <path d="M139.446,30.885C139.446,30.885 124.092,44.468 122.265,47.921C120.481,51.294 115.164,67.537 119.217,84.145C123.27,100.753 137.388,108.398 141.692,111.797C145.995,115.196 168.386,121.107 170.715,121.626" style="fill:none;stroke:black;stroke-width:0.75px;"/>
        </g>
        <g transform="matrix(1,0,0,1,454.976,486.558)">
            <path d="M139.446,30.885C139.446,30.885 124.092,44.468 122.265,47.921C120.481,51.294 115.164,67.537 119.217,84.145C123.27,100.753 137.388,108.398 141.692,111.797C145.995,115.196 168.386,121.107 170.715,121.626" style="fill:none;stroke:black;stroke-width:0.75px;"/>
        </g>
        <g transform="matrix(1,0,0,1,-50.485,133.83)">
            <path d="M139.446,30.885C139.446,30.885 124.092,44.468 122.265,47.921C120.481,51.294 115.164,67.537 119.217,84.145C123.27,100.753 137.388,108.398 141.692,111.797C145.995,115.196 168.386,121.107 170.715,121.626" style="fill:none;stroke:black;stroke-width:0.75px;"/>
        </g>
        <g transform="matrix(1,0,0,1,116.751,378.236)">
            <path d="M139.446,30.885C139.446,30.885 124.092,44.468 122.265,47.921C120.481,51.294 115.164,67.537 119.217,84.145C123.27,100.753 137.388,108.398 141.692,111.797C145.995,115.196 168.386,121.107 170.715,121.626" style="fill:none;stroke:black;stroke-width:0.75px;"/>
        </g>
        <g transform="matrix(1,0,0,1,-72.1602,200.741)">
            <path d="M139.446,30.885C139.446,30.885 124.092,44.468 122.265,47.921C120.481,51.294 115.164,67.537 119.217,84.145C123.27,100.753 137.388,108.398 141.692,111.797C145.995,115.196 168.386,121.107 170.715,121.626" style="fill:none;stroke:black;stroke-width:0.75px;"/>
        </g>
        <g transform="matrix(1,0,0,1,95.0761,445.148)">
            <path d="M139.446,30.885C139.446,30.885 124.092,44.468 122.265,47.921C120.481,51.294 115.164,67.537 119.217,84.145C123.27,100.753 137.388,108.398 141.692,111.797C145.995,115.196 168.386,121.107 170.715,121.626" style="fill:none;stroke:black;stroke-width:0.75px;"/>
        </g>
        <g transform="matrix(1,0,0,1,-128.82,165.155)">
            <path d="M139.446,30.885C139.446,30.885 124.092,44.468 122.265,47.921C120.481,51.294 115.164,67.537 119.217,84.145C123.27,100.753 137.388,108.398 141.692,111.797C145.995,115.196 168.386,121.107 170.715,121.626" style="fill:none;stroke:black;stroke-width:0.75px;"/>
        </g>
        <g transform="matrix(1,0,0,1,38.4163,409.562)">
            <path d="M139.446,30.885C139.446,30.885 124.092,44.468 122.265,47.921C120.481,51.294 115.164,67.537 119.217,84.145C123.27,100.753 137.388,108.398 141.692,111.797C145.995,115.196 168.386,121.107 170.715,121.626" style="fill:none;stroke:black;stroke-width:0.75px;"/>
        </g>
        <g transform="matrix(1,0,0,1,-22.4795,227.056)">
            <path d="M139.446,30.885C139.446,30.885 124.092,44.468 122.265,47.921C120.481,51.294 115.164,67.537 119.217,84.145C123.27,100.753 137.388,108.398 141.692,111.797C145.995,115.196 168.386,121.107 170.715,121.626" style="fill:none;stroke:black;stroke-width:0.75px;"/>
        </g>
    </g>
</svg>
